<svg xmlns="http://www.w3.org/2000/svg" viewBox="0 0 524.57 519.31">
  <defs>
    <style>
      .cls-1 {
        fill: #ddc2de;
      }

      .cls-2 {
        fill: #708c7d;
      }

      .cls-2, .cls-3, .cls-4, .cls-5, .cls-8, .cls-9 {
        stroke: #2d2b28;
        stroke-miterlimit: 10;
      }

      .cls-2, .cls-8 {
        stroke-width: 7px;
      }

      .cls-3, .cls-8 {
        fill: #dbcca5;
      }

      .cls-3, .cls-5, .cls-9 {
        stroke-width: 3px;
      }

      .cls-4, .cls-6 {
        fill: #2d2b28;
      }

      .cls-5 {
        fill: #fff;
      }

      .cls-7 {
        fill: #fdfefe;
      }

      .cls-9 {
        fill: none;
      }
    </style>
  </defs>
  <g id="background">
    <ellipse class="cls-1" cx="262.28" cy="259.66" rx="262.28" ry="259.66"/>
  </g>
  <g id="Layer_1" data-name="Layer 1">
    <g>
      <ellipse class="cls-2" cx="417.28" cy="256" rx="73.5" ry="79"/>
      <path class="cls-3" d="M513.53,371.7c.39,22.8-13.43,48.17-34.48,53.94-8.52,2.34-15.7.78-21.66-.59-19-4.36-56.08-21.56-56.13-53.35-.05-30.68,34.44-49.39,56.13-53.36,4.66-.85,11-1.94,18.68,0C497.52,323.65,513.13,348.15,513.53,371.7Z" transform="translate(-37.72 -115.5)"/>
    </g>
    <g id="ideas">
      <path class="cls-4" d="M290.94,259.3a15,15,0,0,0,.48-1.73c.52-2.43.06-3.57.26-6.46a27.36,27.36,0,0,1,.45-3.23,35.89,35.89,0,0,1,1.19-4.68,25.75,25.75,0,0,1,3.85-7.33,28.2,28.2,0,0,1,8.6-7.38c2.09-1.19,3-1.38,4.77-2.83,2.64-2.22,3.82-4.65,4.1-4.5s-.42,2.18-1.68,4.4c-2,3.51-3.8,4.42-7.39,8.81,0,0-1.25,1.52-2.59,3.42-7.24,10.16-7,21.1-11.33,21.54A3.13,3.13,0,0,1,290.94,259.3Z" transform="translate(-37.72 -115.5)"/>
      <path class="cls-4" d="M301,258.86a12.7,12.7,0,0,0,.49-1.72c.51-2.44.05-3.58.26-6.47a25.5,25.5,0,0,1,.45-3.22,33.76,33.76,0,0,1,1.18-4.68,25.63,25.63,0,0,1,3.85-7.34,28.59,28.59,0,0,1,8.6-7.38c2.1-1.18,3.05-1.37,4.77-2.82,2.64-2.23,3.83-4.65,4.1-4.5s-.41,2.18-1.67,4.39c-2,3.52-3.8,4.43-7.4,8.82,0,0-1.24,1.52-2.59,3.41-7.24,10.16-7,21.11-11.32,21.54A2.7,2.7,0,0,1,301,258.86Z" transform="translate(-37.72 -115.5)"/>
      <path class="cls-4" d="M310.18,259.06a13.2,13.2,0,0,0,.48-1.73c.52-2.43.06-3.57.27-6.46a27.33,27.33,0,0,1,.44-3.22,35.51,35.51,0,0,1,1.19-4.69,25.75,25.75,0,0,1,3.85-7.33,28.47,28.47,0,0,1,8.6-7.38c2.09-1.19,3-1.37,4.77-2.83,2.64-2.22,3.82-4.65,4.1-4.5s-.42,2.19-1.68,4.4c-2,3.52-3.8,4.43-7.39,8.82,0,0-1.24,1.52-2.59,3.41-7.24,10.16-7,21.1-11.33,21.54A2.63,2.63,0,0,1,310.18,259.06Z" transform="translate(-37.72 -115.5)"/>
      <path class="cls-4" d="M433,374.66c1.15,11,1.73,16.51,5,17.74,4.27,1.62,10.35-4.35,12.75-7.39a18.35,18.35,0,0,0,4.35-10.35c.09-1.4.48-9.88-6.12-14.35-4.4-3-11.44-3.87-14.92-.51C431.71,362,432.11,366.27,433,374.66Z" transform="translate(-37.72 -115.5)"/>
      <g>
        <ellipse class="cls-2" cx="113.28" cy="256" rx="73.5" ry="79"/>
        <path class="cls-3" d="M93,371.7c-.39,22.8,13.43,48.17,34.49,53.94,8.52,2.34,15.69.78,21.65-.59,19-4.36,56.09-21.56,56.14-53.35.05-30.68-34.44-49.39-56.14-53.36-4.65-.85-11-1.94-18.68,0C109,323.65,93.4,348.15,93,371.7Z" transform="translate(-37.72 -115.5)"/>
      </g>
      <path class="cls-4" d="M173.55,374.66c-1.16,11-1.73,16.51-5,17.74-4.27,1.62-10.34-4.35-12.75-7.39a18.42,18.42,0,0,1-4.34-10.35c-.09-1.4-.49-9.88,6.12-14.35,4.39-3,11.44-3.87,14.92-.51C174.82,362,174.43,366.27,173.55,374.66Z" transform="translate(-37.72 -115.5)"/>
    </g>
    <ellipse class="cls-2" cx="264.78" cy="273.5" rx="135" ry="133.5"/>
    <path class="cls-3" d="M185.91,440.38a167.58,167.58,0,0,1,3.59-75.84c4.5-15.65,12.83-44.58,38.61-65.41,16.68-13.48,33.69-17.93,44.89-20.85,9.68-2.53,27.46-7,50.28-3.32,8.81,1.41,26.38,4.44,44.45,17.54,12.08,8.76,19.2,18.27,24.24,25.12a137.12,137.12,0,0,1,21.1,42.18c2.6,9.17,2.93,24.76,3.59,55.94.11,5.12.21,14-4,23.7a46.61,46.61,0,0,1-2.69,5.21" transform="translate(-37.72 -115.5)"/>
    <path class="cls-5" d="M278,395.35c2.5,27.71,3.64,41.67-2.08,46.71-5.14,4.52-14.13,4.72-32.11,5.11-18.85.41-28.28.61-33.65-4-6.2-5.26-4.9-12.3-2.16-47.54,2.76-35.47,2.69-44.31,10.64-49.06,5-3,11.75-3,25.17-3.08,11.89,0,17.84-.07,22.16,2.31C273.81,350.16,275.33,365.28,278,395.35Z" transform="translate(-37.72 -115.5)"/>
    <ellipse class="cls-6" cx="205.28" cy="286" rx="28" ry="29.5"/>
    <path class="cls-5" d="M390.62,396.11c2.5,27.71,3.63,41.67-2.08,46.71-5.15,4.53-14.14,4.72-32.12,5.11-18.85.41-28.27.61-33.64-3.95-6.2-5.26-4.9-12.3-2.16-47.55,2.76-35.47,2.69-44.31,10.64-49.05,5-3,11.75-3,25.16-3.09,11.9,0,17.85-.06,22.16,2.32C386.39,350.92,387.91,366,390.62,396.11Z" transform="translate(-37.72 -115.5)"/>
    <path class="cls-7" d="M266.94,404.76c.06,1,.24,4.46-2.31,6.77a8.17,8.17,0,0,1-6.33,1.79c-4.26-.47-8.65-4.14-8.65-8.56a8.86,8.86,0,0,1,1.87-5.31,8.6,8.6,0,0,1,13.51.07A9,9,0,0,1,266.94,404.76Z" transform="translate(-37.72 -115.5)"/>
    <ellipse class="cls-6" cx="318.28" cy="286" rx="28" ry="29.5"/>
    <path class="cls-7" d="M379.52,404.76c.05,1,.24,4.46-2.31,6.77a8.17,8.17,0,0,1-6.33,1.79c-4.26-.47-8.65-4.14-8.65-8.56a8.86,8.86,0,0,1,1.87-5.31,8.6,8.6,0,0,1,13.51.07A9,9,0,0,1,379.52,404.76Z" transform="translate(-37.72 -115.5)"/>
    <g>
      <ellipse class="cls-8" cx="262.28" cy="358" rx="143.5" ry="52"/>
      <path class="cls-3" d="M209.45,475.31c79.49,9.75,138.59,8.2,154.05,4.91A230.59,230.59,0,0,0,396,470.57c3.9-1.54,7-2.9,8.62-3.65" transform="translate(-37.72 -115.5)"/>
      <line class="cls-9" x1="172.35" y1="353.32" x2="168.89" y2="365.1"/>
      <line class="cls-9" x1="365.54" y1="345.45" x2="370.76" y2="356.59"/>
    </g>
    <path class="cls-3" d="M297,447.12c-1.38,5.09-9.21,7.1-17.51,4.48s-13.91-8.87-12.54-14c1-3.82,7.45-5.59,11.75-5.59a16.48,16.48,0,0,1,5.76,1.11C290.85,435.55,298.31,442.24,297,447.12Z" transform="translate(-37.72 -115.5)"/>
    <ellipse class="cls-6" cx="283.5" cy="442.5" rx="5.3" ry="6.66" transform="translate(-269.19 431.8) rotate(-68.86)"/>
    <path class="cls-3" d="M301.44,447.12c1.37,5.09,9.21,7.1,17.5,4.48s13.91-8.87,12.54-14c-1-3.82-7.45-5.59-11.75-5.59a16.4,16.4,0,0,0-5.75,1.11C307.58,435.55,300.12,442.24,301.44,447.12Z" transform="translate(-37.72 -115.5)"/>
    <ellipse class="cls-6" cx="315.5" cy="442.5" rx="6.66" ry="5.3" transform="translate(-176.09 28.09) rotate(-21.14)"/>
  </g>
</svg>
